<svg xmlns="http://www.w3.org/2000/svg" width="58.821" height="36.77" viewBox="0 0 58.821 36.77">
  <g id="behance-network_1_" data-name="behance-network (1)" transform="translate(0 -4.5)">
    <path id="Path_5" data-name="Path 5" d="M30.305,30.108c0-4.53-2.155-7.878-6.606-9.133,3.248-1.547,4.942-3.89,4.942-7.535,0-7.187-5.373-8.94-11.572-8.94H0V40.585H17.546c6.579,0,12.759-3.145,12.759-10.477ZM7.957,10.66h7.467c2.87,0,5.454.8,5.454,4.123,0,3.064-2.01,4.3-4.854,4.3H7.957Zm0,23.8V24.52h8.673c3.5,0,5.719,1.456,5.719,5.153,0,3.645-2.645,4.785-5.883,4.785Z" fill="#fff"/>
    <path id="Path_6" data-name="Path 6" d="M26.737,35.809C33,35.809,37.052,33,39,27.022H32.65c-.684,2.231-3.5,3.41-5.689,3.41-4.219,0-6.435-2.464-6.435-6.65H39.433c.6-8.378-4.069-15.519-12.7-15.519-7.989,0-13.411,5.986-13.411,13.828C13.324,30.228,18.462,35.809,26.737,35.809Zm-.226-22.125c3.616,0,5.434,2.118,5.738,5.582H20.536a5.621,5.621,0,0,1,5.976-5.582Z" transform="translate(19.337 5.46)" fill="#fff"/>
    <path id="Path_7" data-name="Path 7" d="M15.667,5.273H30.345V8.827H15.667Z" transform="translate(22.737 1.122)" fill="#fff"/>
  </g>
</svg>
