<svg xmlns="http://www.w3.org/2000/svg" width="44.14" height="44.14" viewBox="0 0 44.14 44.14">
  <g id="dribbble_2_" data-name="dribbble (2)" transform="translate(0)">
    <path id="Path_8" data-name="Path 8" d="M333.023,274.965a89.11,89.11,0,0,1,4.817,16.875,22.245,22.245,0,0,0,4.149-3.266,21.907,21.907,0,0,0,6.16-11.929,27.491,27.491,0,0,0-15.125-1.68Zm0,0" transform="translate(-304.313 -250.899)" fill="#fff"/>
    <path id="Path_9" data-name="Path 9" d="M200.687,6.483l-.019-.019a22.124,22.124,0,0,0-22.3-5.435,89.426,89.426,0,0,1,9.017,13.706,51.226,51.226,0,0,0,13.3-8.252Zm0,0" transform="translate(-162.993)" fill="#fff"/>
    <path id="Path_10" data-name="Path 10" d="M310.66,97.859a53.426,53.426,0,0,1-13.839,8.615q1.116,2.247,2.11,4.565a30.236,30.236,0,0,1,5.661-.532,29.9,29.9,0,0,1,10.757,1.983c.015-.331.023-.664.023-1a21.9,21.9,0,0,0-4.712-13.634Zm0,0" transform="translate(-271.232 -89.422)" fill="#fff"/>
    <path id="Path_11" data-name="Path 11" d="M98.425,300.615a22.125,22.125,0,0,0,22.628,2.746,86.744,86.744,0,0,0-4.984-17.576,27.613,27.613,0,0,0-17.644,14.83Zm0,0" transform="translate(-89.94 -261.148)" fill="#fff"/>
    <path id="Path_12" data-name="Path 12" d="M21.652,214.512a29.961,29.961,0,0,1,3.468-1.222q-.93-2.131-1.971-4.2a53.408,53.408,0,0,1-18.672,3.336q-2.244,0-4.458-.182c-.012.3-.019.593-.019.891A21.925,21.925,0,0,0,6.464,228.74l0,0a30.178,30.178,0,0,1,15.184-14.231Zm0,0" transform="translate(0 -191.064)" fill="#fff"/>
    <path id="Path_13" data-name="Path 13" d="M24.81,37.2a87.846,87.846,0,0,0-9.137-13.674A22.14,22.14,0,0,0,3.141,40.1q2.081.17,4.207.172A50.888,50.888,0,0,0,24.81,37.2Zm0,0" transform="translate(-2.87 -21.5)" fill="#fff"/>
  </g>
</svg>
