<svg id="linkedin_4_" data-name="linkedin (4)" xmlns="http://www.w3.org/2000/svg" width="43.089" height="43.09" viewBox="0 0 43.089 43.09">
  <path id="Path_15" data-name="Path 15" d="M36.327,37.065v0h.011V21.26c0-7.731-1.664-13.686-10.7-13.686a9.382,9.382,0,0,0-8.451,4.645h-.126V8.3H8.489V37.063h8.923V22.819c0-3.751.711-7.377,5.356-7.377,4.576,0,4.645,4.28,4.645,7.618V37.065Z" transform="translate(6.752 6.024)" fill="#fff"/>
  <path id="Path_16" data-name="Path 16" d="M.4,7.977H9.33V36.745H.4Z" transform="translate(0.315 6.345)" fill="#fff"/>
  <path id="Path_17" data-name="Path 17" d="M5.174,0a5.2,5.2,0,1,0,5.174,5.174A5.176,5.176,0,0,0,5.174,0Z" fill="#fff"/>
</svg>
